HIERARCHY
ROOT root
{
	OFFSET 0.000000 0.000000 0.000000
	CHANNELS 6 Xposition Yposition Zposition Zrotation Yrotation Xrotation
	JOINT lhip
	{
		OFFSET 0.058581 -0.082280 -0.017664
		CHANNELS 3 Zrotation Yrotation Xrotation
		JOINT lknee
		{
			OFFSET 0.043451 -0.386469 0.008037
			CHANNELS 3 Zrotation Yrotation Xrotation
			JOINT lankle
			{
				OFFSET -0.014790 -0.426874 -0.037428
				CHANNELS 3 Zrotation Yrotation Xrotation
				JOINT ltoe
				{
					OFFSET 0.041054 -0.060286 0.122042
					CHANNELS 3 Zrotation Yrotation Xrotation
					End Site
					{
						OFFSET 0.000000 0.000000 0.000000
					}
				}
			}
		}
	}
	JOINT rhip
	{
		OFFSET -0.060310 -0.090513 -0.013543
		CHANNELS 3 Zrotation Yrotation Xrotation
		JOINT rknee
		{
			OFFSET -0.043257 -0.383688 -0.004843
			CHANNELS 3 Zrotation Yrotation Xrotation
			JOINT rankle
			{
				OFFSET 0.019056 -0.420046 -0.034562
				CHANNELS 3 Zrotation Yrotation Xrotation
				JOINT rtoe
				{
					OFFSET -0.034840 -0.062106 0.130323
					CHANNELS 3 Zrotation Yrotation Xrotation
					End Site
					{
						OFFSET 0.000000 0.000000 0.000000
					}
				}
			}
		}
	}
	JOINT lowerback
	{
		OFFSET 0.004439 0.124404 -0.038385
		CHANNELS 3 Zrotation Yrotation Xrotation
		JOINT upperback
		{
			OFFSET 0.004488 0.137956 0.026820
			CHANNELS 3 Zrotation Yrotation Xrotation
			JOINT chest
			{
				OFFSET -0.002265 0.056032 0.002855
				CHANNELS 3 Zrotation Yrotation Xrotation
				JOINT lowerneck
				{
					OFFSET -0.013390 0.211636 -0.033468
					CHANNELS 3 Zrotation Yrotation Xrotation
					JOINT upperneck
					{
						OFFSET 0.010113 0.088937 0.050410
						CHANNELS 3 Zrotation Yrotation Xrotation
						End Site
						{
							OFFSET 0.000000 0.000000 0.000000
						}
					}
				}
				JOINT lclavicle
				{
					OFFSET 0.071702 0.114000 -0.018898
					CHANNELS 3 Zrotation Yrotation Xrotation
					JOINT lshoulder
					{
						OFFSET 0.122921 0.045205 -0.019046
						CHANNELS 3 Zrotation Yrotation Xrotation
						JOINT lelbow
						{
							OFFSET 0.255332 -0.015649 -0.022946
							CHANNELS 3 Zrotation Yrotation Xrotation
							JOINT lwrist
							{
								OFFSET 0.265709 0.012698 -0.007375
								CHANNELS 3 Zrotation Yrotation Xrotation
								End Site
								{
									OFFSET 0.000000 0.000000 0.000000
								}
							}
						}
					}
				}
				JOINT rclavicle
				{
					OFFSET -0.082954 0.112472 -0.023707
					CHANNELS 3 Zrotation Yrotation Xrotation
					JOINT rshoulder
					{
						OFFSET -0.113228 0.046853 -0.008472
						CHANNELS 3 Zrotation Yrotation Xrotation
						JOINT relbow
						{
							OFFSET -0.260127 -0.014369 -0.031269
							CHANNELS 3 Zrotation Yrotation Xrotation
							JOINT rwrist
							{
								OFFSET -0.269108 0.006794 -0.006027
								CHANNELS 3 Zrotation Yrotation Xrotation
								End Site
								{
									OFFSET 0.000000 0.000000 0.000000
								}
							}
						}
					}
				}
			}
		}
	}
}
MOTION
Frames: 5
Frame Time: 0.033333
-0.112736 -1.628107 0.986604 -165.961723 3.083697 98.595159 4.940829 6.559184 4.869418 -2.334131 -4.417936 -10.310074 5.198123 13.618144 -17.029356 0.000000 -0.000000 0.000000 -4.066470 -0.467251 -33.482173 3.310796 -12.236975 27.935157 4.073056 -11.661839 -13.306827 0.000000 -0.000000 0.000000 -1.088595 -4.292036 15.685507 0.722587 1.706262 -5.748357 1.878484 -2.644946 -1.421170 4.947457 11.929162 -5.185497 0.785663 7.463151 8.528924 -24.086897 -2.782688 1.890159 -50.019754 -14.632651 6.719496 11.055497 -30.223832 -0.500171 2.437466 -3.985704 -3.191199 23.519321 1.871682 2.491114 51.375921 7.592275 8.963777 -10.826494 17.916610 -11.815682 2.483956 0.898792 -5.486276 
-0.120053 -1.634003 0.985633 -165.779039 3.067446 98.226865 4.603471 6.786380 5.183558 -2.755293 -4.966690 -10.589031 5.466554 13.653358 -17.362353 0.000000 -0.000000 0.000000 -4.751806 -0.275431 -34.023014 2.913253 -12.310672 29.208941 4.480328 -12.098115 -13.508973 0.000000 -0.000000 0.000000 -1.502793 -4.373928 15.839022 0.911210 1.724935 -5.653859 1.967776 -2.632716 -1.139923 5.969905 10.163612 -4.163199 1.422864 5.362406 8.024229 -23.943110 -2.207707 1.980053 -50.296247 -14.306540 6.838023 10.318712 -30.321634 0.271152 2.264026 -3.988936 -3.372292 23.541741 1.839142 2.267704 51.721936 7.344388 9.114330 -10.145025 18.449596 -11.039701 2.709877 0.948792 -5.396690 
-0.126904 -1.638982 0.984087 -165.676146 3.096068 97.790393 4.357744 7.071647 5.890645 -3.135595 -5.640952 -11.198937 5.851207 13.731050 -17.761991 0.000000 -0.000000 0.000000 -5.326464 -0.216044 -34.891179 2.347231 -12.738308 31.351033 4.679753 -12.433674 -13.599606 0.000000 -0.000000 0.000000 -1.940783 -4.491062 16.349293 1.139607 1.764311 -5.885482 2.147023 -2.817829 -0.873410 6.894734 8.596038 -3.790162 1.994177 3.538948 8.152812 -23.751204 -1.838410 2.209895 -50.773231 -13.766600 6.984339 9.883623 -29.510124 0.548830 1.862591 -4.072615 -3.790771 23.595872 1.874072 2.032704 51.693266 7.052393 9.491899 -9.527138 19.011891 -10.175140 3.164295 1.343020 -5.229166 
-0.135259 -1.643618 0.981450 -165.603783 3.471872 97.026953 4.432788 7.293866 6.608995 -3.642663 -6.331133 -11.141571 6.700842 13.980448 -18.683987 0.000000 -0.000000 0.000000 -5.653074 -0.099467 -36.832117 1.259730 -14.781568 35.882006 4.571583 -14.740104 -12.965355 0.000000 -0.000000 0.000000 -2.421955 -4.897596 17.101478 1.543671 1.849165 -5.901995 2.426217 -3.184724 -0.495679 8.258909 6.564840 -3.328977 2.948867 1.417925 7.928010 -23.774973 -1.589527 2.932592 -50.722077 -12.924490 6.705489 9.153647 -27.955849 0.816537 0.784479 -2.996065 -3.932871 23.914685 1.861310 1.685480 51.414339 6.981639 9.613283 -9.244082 19.609507 -9.750133 3.830602 1.211208 -4.555285 
-0.137462 -1.643934 0.980765 -165.626204 3.675956 96.830694 4.604497 7.183370 6.920205 -3.837467 -6.662335 -11.167126 6.546367 14.059812 -19.418919 0.000000 -0.000000 0.000000 -5.617586 -0.037560 -37.790547 0.974751 -15.418005 37.895919 4.379092 -15.251868 -12.411349 0.000000 -0.000000 0.000000 -2.491243 -5.115848 17.350308 1.711976 1.844954 -5.957934 2.452797 -3.246999 -0.408358 8.899623 5.716375 -3.533463 3.184665 0.443662 7.995015 -23.881690 -1.537675 3.068481 -50.662655 -12.683434 6.657415 9.208238 -26.854514 0.899056 0.398357 -2.918705 -3.767167 23.912406 1.792372 1.561586 51.553356 6.927358 9.649913 -9.145831 19.471231 -9.640506 3.814986 1.092694 -4.456719 
